<svg xmlns="http://www.w3.org/2000/svg" width="132.844" height="21.25" viewBox="0 0 132.844 21.25">
  <defs>
    <style>
      .cls-1 {
        fill: #f50000;
        fill-rule: evenodd;
      }
    </style>
  </defs>
  <path id="logo.svg" class="cls-1" d="M325.8,296.89h-5.34l-3.42,14.13h-0.09l-3.81-14.13H307.8l-3.78,14.13h-0.09l-3.36-14.13h-5.52l6.03,21.24h5.1l4.2-14.37h0.09l4.2,14.37h5.07Zm17.01,21.24v-4.38h-9.87v-4.41h8.82v-4.11h-8.82v-4.02h9.33v-4.32h-14.28v21.24h14.82Zm19.6-8.07a4.8,4.8,0,0,0-2.31-2.5,5.857,5.857,0,0,0-1.7-.555v-0.06a5.35,5.35,0,0,0,2.52-1.665,4.424,4.424,0,0,0,.96-2.925,4.677,4.677,0,0,0-2.37-4.335,7.519,7.519,0,0,0-2.34-.87,13.073,13.073,0,0,0-2.52-.255H346.2v21.24h8.46a14.074,14.074,0,0,0,2.985-.315,7.992,7.992,0,0,0,2.6-1.035,5.485,5.485,0,0,0,1.83-1.9,5.735,5.735,0,0,0,.69-2.925A4.961,4.961,0,0,0,362.417,310.06Zm-6.27-5.3a3.716,3.716,0,0,1-2.235.585h-2.76v-4.38h2.52a4.836,4.836,0,0,1,2.445.495,1.7,1.7,0,0,1,.825,1.575A2.007,2.007,0,0,1,356.147,304.765Zm1.155,7.98a2.263,2.263,0,0,1-.855.765,3.907,3.907,0,0,1-1.17.375,7.654,7.654,0,0,1-1.245.105h-2.88v-4.86H354a5.81,5.81,0,0,1,2.64.51,1.877,1.877,0,0,1,.99,1.83A2.262,2.262,0,0,1,357.3,312.745Zm22.83-11.475v-4.38h-13.98v21.24h5.07v-8.25h8.22v-4.23h-8.22v-4.38h8.91Zm16.68,16.86v-4.47h-8.22V296.89h-5.16v21.24h13.38Zm7.56,0V296.89h-5.16v21.24h5.16Zm23.52,0-7.68-11.22,6.72-10.02h-5.97l-3.9,6.6-3.96-6.6h-6.18l6.84,10.02-7.44,11.22h6.12l4.47-7.5,4.65,7.5h6.33Z" transform="translate(-295.062 -296.875)"/>
</svg>
